Patient4_TMGait_0pt3_01_right_01_GRF.mot
version=1
nRows=45
nColumns=19
inDegrees=no
endheader
time	F1x	F1y	F1z	M1x	M1y	M1z	F2x	F2y	F2z	M2x	M2y	M2z	EC1x	EC1y	EC1z	EC2x	EC2y	EC2z
0.38	-5.175	751.8176	57.3435	-286.2588	-59.0886	785.797	-4.4809	26.3083	-3.5684	8.3942	4.6202	24.9345	-0.0592	0.0182	-0.0073	-0.0462	0.0165	0.9585
0.39757	-4.8187	758.8567	58.3221	-288.9599	-59.6649	791.1697	-4.4168	21.1302	-2.9217	6.8046	4.0771	20.1255	-0.0592	0.0182	-0.0073	-0.0462	0.0165	0.9585
0.41514	-4.2493	766.4312	59.3435	-291.8905	-60.1309	796.5024	-3.9544	15.7564	-2.1875	5.1364	3.3104	15.1365	-0.0592	0.0182	-0.0073	-0.0462	0.0165	0.9585
0.43271	-3.4487	773.753	60.3066	-294.7467	-60.3849	801.0462	-3.1479	10.8038	-1.4495	3.5861	2.4153	10.5392	-0.0592	0.0182	-0.0073	-0.0462	0.0165	0.9585
0.45029	-2.4184	779.9517	61.1231	-297.1926	-60.3511	804.0151	-2.2509	6.7612	-0.81117	2.3127	1.569	6.7916	-0.0592	0.0182	-0.0073	-0.0462	0.0165	0.9585
0.46786	-1.1403	784.296	61.7249	-298.9448	-59.9682	804.7752	-1.4424	3.7815	-0.31659	1.3688	0.87063	4.0364	-0.0592	0.0182	-0.0073	-0.0462	0.0165	0.9585
0.48543	0.4215	786.3689	62.0691	-299.837	-59.1911	803.0012	-0.80528	1.7718	0.027049	0.72687	0.35512	2.1749	-0.0592	0.0182	-0.0073	-0.0462	0.0165	0.9585
0.503	2.285	786.062	62.1506	-299.8185	-58.0173	798.6782	-0.36064	0.50945	0.24313	0.31633	0.0088838	0.98987	-0.0592	0.0182	-0.0073	-0.0462	0.0165	0.9585
0.52057	4.4381	783.5548	61.9908	-298.9483	-56.4841	792.0652	-0.092654	-0.27841	0.36538	0.048961	-0.19871	0.21971	-0.0592	0.0182	-0.0073	-0.0462	0.0165	0.9585
0.53814	6.8393	779.283	61.6122	-297.3895	-54.6398	783.6557	0.033486	-0.87139	0.42497	-0.16632	-0.30187	-0.4115	-0.0592	0.0182	-0.0073	-0.0462	0.0165	0.9585
0.55571	9.4202	773.8717	61.0373	-295.384	-52.5442	774.1057	0.061767	-1.5235	0.44665	-0.41219	-0.33702	-1.157	-0.0592	0.0182	-0.0073	-0.0462	0.0165	0.9585
0.57329	12.1132	768.0556	60.2987	-293.2185	-50.267	764.1469	0.041829	-2.4396	0.45473	-0.75591	-0.34522	-2.2202	-0.0592	0.0182	-0.0073	-0.0462	0.0165	0.9585
0.59086	14.8937	762.5985	59.444	-291.1921	-47.8768	754.5021	0.029741	-3.749	0.46947	-1.2404	-0.36802	-3.7293	-0.0592	0.0182	-0.0073	-0.0462	0.0165	0.9585
0.60843	17.78	758.1623	58.5351	-289.5666	-45.4353	745.7739	0.085318	-5.468	0.5077	-1.8699	-0.44397	-5.6924	-0.0592	0.0182	-0.0073	-0.0462	0.0165	0.9585
0.626	20.8258	755.1429	57.6422	-288.4987	-42.994	738.3	0.27086	-7.4509	0.58184	-2.5913	-0.60631	-7.943	-0.0592	0.0182	-0.0073	-0.0462	0.0165	0.9585
0.64357	24.1207	753.5602	56.8297	-287.993	-40.581	732.0499	0.65036	-9.3284	0.69286	-3.2725	-0.87664	-10.0713	-0.0592	0.0182	-0.0073	-0.0462	0.0165	0.9585
0.66114	27.7521	753.0005	56.1528	-287.8792	-38.2105	726.5904	1.2791	-10.4321	0.83327	-3.6768	-1.2595	-11.3354	-0.0592	0.0182	-0.0073	-0.0462	0.0165	0.9585
0.67871	31.7557	752.6083	55.6543	-287.8118	-35.9041	721.1095	2.194	-9.7288	0.98473	-3.4387	-1.7392	-10.5871	-0.0592	0.0182	-0.0073	-0.0462	0.0165	0.9585
0.69629	36.0982	751.1946	55.3416	-287.3121	-33.6794	714.5419	3.3923	-5.7937	1.1142	-2.0531	-2.2706	-6.2466	-0.0592	0.0182	-0.0073	-0.0462	0.0165	0.9585
0.71386	40.6502	747.394	55.1756	-285.8292	-31.5484	705.7312	4.7973	3.1532	1.1729	1.1114	-2.7628	3.659	-0.0592	0.0182	-0.0073	-0.0462	0.0165	0.9585
0.73143	45.1427	739.7557	55.1029	-282.7757	-29.5648	693.5306	6.2211	19.0982	1.0922	6.7582	-3.0626	21.3386	-0.0592	0.0182	-0.0073	-0.0462	0.0165	0.9585
0.749	49.1639	726.8788	55.0321	-277.5921	-27.8077	676.9172	7.315	43.8866	0.77759	15.5398	-2.9335	48.8533	-0.0592	0.0182	-0.0073	-0.0462	0.0165	0.9585
0.76657	52.1975	707.5556	54.765	-269.8142	-26.3092	655.0904	7.5069	78.6261	0.11153	27.8491	-2.0432	87.4563	-0.0592	0.0182	-0.0073	-0.0462	0.0165	0.9585
0.78414	53.7169	680.8835	53.9853	-259.1182	-25.0037	627.5259	5.9367	122.9201	-1.0044	43.5487	0.0062432	136.7388	-0.0592	0.0182	-0.0073	-0.0462	0.0165	0.9585
0.80171	53.3493	646.4359	52.3867	-245.3708	-23.7789	594.0426	2.0919	174.3324	-2.6702	61.7682	3.486	194.0211	-0.0592	0.0182	-0.0073	-0.0462	0.0165	0.9585
0.81929	51.0019	604.6432	49.8043	-228.7728	-22.5375	555.076	-3.5506	228.6964	-5.1024	80.9973	8.4396	254.6336	-0.0592	0.0182	-0.0073	-0.0462	0.0165	0.9585
0.83686	46.9326	557.1146	46.2614	-209.9862	-21.2021	511.9396	-10.0832	282.0002	-8.3036	99.7791	14.5155	314.0217	-0.0592	0.0182	-0.0073	-0.0462	0.0165	0.9585
0.85443	41.7547	506.4026	41.9765	-190.0371	-19.7139	466.6232	-16.6933	332.1805	-12.0124	117.3586	21.1231	369.8309	-0.0592	0.0182	-0.0073	-0.0462	0.0165	0.9585
0.872	36.2591	455.1696	37.2649	-169.9965	-18.0155	421.1368	-22.8197	378.6498	-15.891	133.5153	27.6958	421.3801	-0.0592	0.0182	-0.0073	-0.0462	0.0165	0.9585
0.88957	31.0881	405.3207	32.4143	-150.6392	-16.0734	376.8486	-28.0949	421.3344	-19.6982	148.2124	33.8489	468.5703	-0.0592	0.0182	-0.0073	-0.0462	0.0165	0.9585
0.90714	26.542	357.7236	27.6575	-132.3241	-13.9392	334.3158	-32.2964	460.2734	-23.3666	161.4528	39.4388	511.4297	-0.0592	0.0182	-0.0073	-0.0462	0.0165	0.9585
0.92471	22.6154	312.5453	23.1517	-115.1182	-11.7234	293.5927	-35.3353	495.628	-26.9285	173.2932	44.4748	550.1169	-0.0592	0.0182	-0.0073	-0.0462	0.0165	0.9585
0.94229	19.1337	269.7172	18.9932	-98.9758	-9.5634	254.6109	-37.252	527.7806	-30.3945	183.8903	48.987	585.0224	-0.0592	0.0182	-0.0073	-0.0462	0.0165	0.9585
0.95986	15.8608	229.2645	15.2466	-83.8674	-7.6085	217.4443	-38.1997	557.3761	-33.7268	193.5135	52.9886	616.8176	-0.0592	0.0182	-0.0073	-0.0462	0.0165	0.9585
0.97743	12.6022	191.4472	11.9688	-69.8452	-5.9966	182.4057	-38.3692	585.1752	-36.8547	202.484	56.4663	646.2976	-0.0592	0.0182	-0.0073	-0.0462	0.0165	0.9585
0.995	9.2735	156.7371	9.2188	-57.04	-4.8318	150.0005	-37.9361	611.8174	-39.7032	211.0786	59.3951	674.1284	-0.0592	0.0182	-0.0073	-0.0462	0.0165	0.9585
1.0126	5.9139	125.6673	7.043	-45.6118	-4.1588	120.7845	-37.0515	637.5671	-42.2208	219.4292	61.7664	700.587	-0.0592	0.0182	-0.0073	-0.0462	0.0165	0.9585
1.0301	2.6622	98.5961	5.4358	-35.6715	-3.9361	95.146	-35.8453	662.177	-44.3759	227.4686	63.5929	725.4189	-0.0592	0.0182	-0.0073	-0.0462	0.0165	0.9585
1.0477	-0.29795	75.5237	4.3157	-27.2144	-4.0313	73.1386	-34.4127	684.9548	-46.1582	234.9546	64.9031	747.9102	-0.0592	0.0182	-0.0073	-0.0462	0.0165	0.9585
1.0653	-2.7828	56.1485	3.5462	-20.1323	-4.2595	54.5351	-32.8149	705.0283	-47.5979	241.569	65.7531	767.1741	-0.0592	0.0182	-0.0073	-0.0462	0.0165	0.9585
1.0829	-4.61	40.0537	2.9796	-14.2749	-4.4238	38.9993	-31.101	721.6746	-48.7485	247.0394	66.2175	782.5007	-0.0592	0.0182	-0.0073	-0.0462	0.0165	0.9585
1.1004	-5.6064	26.8595	2.489	-9.5019	-4.3488	26.2169	-29.3308	734.5808	-49.6567	251.2352	66.3681	793.6202	-0.0592	0.0182	-0.0073	-0.0462	0.0165	0.9585
1.118	-5.6818	16.2999	1.997	-5.7101	-3.9338	15.9624	-27.5925	743.9794	-50.3577	254.2158	66.2772	800.8414	-0.0592	0.0182	-0.0073	-0.0462	0.0165	0.9585
1.1356	-4.9732	8.2536	1.4994	-2.8447	-3.2273	8.1308	-26.0123	750.6233	-50.895	256.2197	66.0386	805.0232	-0.0592	0.0182	-0.0073	-0.0462	0.0165	0.9585
1.1531	-3.8798	2.6264	1.0542	-0.85738	-2.4279	2.638	-24.7366	755.6602	-51.3186	257.6255	65.7598	807.4333	-0.0592	0.0182	-0.0073	-0.0462	0.0165	0.9585
